<svg width="23" height="25" viewBox="0 0 23 25" fill="none" xmlns="http://www.w3.org/2000/svg">
<g clip-path="url(#clip0_6_128)" filter="url(#filter0_d_6_128)">
<path d="M7.76665 6.9C6.91796 6.9 6.10403 6.56286 5.50391 5.96274C4.90379 5.36263 4.56665 4.54869 4.56665 3.7C4.56665 2.85131 4.90379 2.03737 5.50391 1.43726C6.10403 0.837142 6.91796 0.5 7.76665 0.5L15.2333 0.5C16.082 0.5 16.8959 0.837142 17.4961 1.43726C18.0962 2.03737 18.4333 2.85131 18.4333 3.7C18.4333 4.54869 18.0962 5.36263 17.4961 5.96274C16.8959 6.56286 16.082 6.9 15.2333 6.9H13.1V4.23333C13.1 3.52609 12.819 2.84781 12.3189 2.34772C11.8188 1.84762 11.1406 1.56667 10.4333 1.56667C9.72607 1.56667 9.0478 1.84762 8.5477 2.34772C8.0476 2.84781 7.76665 3.52609 7.76665 4.23333V6.9Z" fill="white"/>
<g filter="url(#filter1_d_6_128)">
<path d="M10.4333 2.63333C10.0089 2.63333 9.60197 2.8019 9.30191 3.10196C9.00186 3.40202 8.83328 3.80899 8.83328 4.23333V9.08667C8.23096 9.20962 7.68961 9.5369 7.30085 10.0131C6.9121 10.4893 6.69983 11.0853 6.69995 11.7C6.69995 12.973 7.20566 14.1939 8.10584 15.0941C9.00601 15.9943 10.2269 16.5 11.5 16.5H12.0333C13.4478 16.5 14.8043 15.9381 15.8045 14.9379C16.8047 13.9377 17.3666 12.5812 17.3666 11.1667V10.2568C17.3666 9.64942 17.1253 9.06692 16.6959 8.63743C16.2664 8.20795 15.6839 7.96667 15.0765 7.96667H12.0333V4.23333C12.0333 3.80899 11.8647 3.40202 11.5647 3.10196C11.2646 2.8019 10.8576 2.63333 10.4333 2.63333Z" fill="white"/>
</g>
</g>
<defs>
<filter id="filter0_d_6_128" x="-0.5" y="0.5" width="24" height="24" filterUnits="userSpaceOnUse" color-interpolation-filters="sRGB">
<feFlood flood-opacity="0" result="BackgroundImageFix"/>
<feColorMatrix in="SourceAlpha" type="matrix" values="0 0 0 0 0 0 0 0 0 0 0 0 0 0 0 0 0 0 127 0" result="hardAlpha"/>
<feOffset dy="4"/>
<feGaussianBlur stdDeviation="2"/>
<feComposite in2="hardAlpha" operator="out"/>
<feColorMatrix type="matrix" values="0 0 0 0 0 0 0 0 0 0 0 0 0 0 0 0 0 0 0.25 0"/>
<feBlend mode="normal" in2="BackgroundImageFix" result="effect1_dropShadow_6_128"/>
<feBlend mode="normal" in="SourceGraphic" in2="effect1_dropShadow_6_128" result="shape"/>
</filter>
<filter id="filter1_d_6_128" x="2.69995" y="2.63333" width="18.6667" height="21.8667" filterUnits="userSpaceOnUse" color-interpolation-filters="sRGB">
<feFlood flood-opacity="0" result="BackgroundImageFix"/>
<feColorMatrix in="SourceAlpha" type="matrix" values="0 0 0 0 0 0 0 0 0 0 0 0 0 0 0 0 0 0 127 0" result="hardAlpha"/>
<feOffset dy="4"/>
<feGaussianBlur stdDeviation="2"/>
<feComposite in2="hardAlpha" operator="out"/>
<feColorMatrix type="matrix" values="0 0 0 0 0 0 0 0 0 0 0 0 0 0 0 0 0 0 0.25 0"/>
<feBlend mode="normal" in2="BackgroundImageFix" result="effect1_dropShadow_6_128"/>
<feBlend mode="normal" in="SourceGraphic" in2="effect1_dropShadow_6_128" result="shape"/>
</filter>
<clipPath id="clip0_6_128">
<rect width="16" height="16" fill="white" transform="translate(3.5 0.5)"/>
</clipPath>
</defs>
</svg>
